<svg width="32" height="32" viewBox="0 0 32 32" fill="none" xmlns="http://www.w3.org/2000/svg">
<path opacity="0.4" d="M15.9988 29.3309C14.9735 29.3309 13.9495 28.9415 13.1668 28.1642L12.1935 27.1909C11.8161 26.8149 11.3108 26.6069 10.7748 26.6055H9.40546C7.19212 26.6055 5.39079 24.8042 5.39079 22.5909V21.2202C5.38946 20.6855 5.18146 20.1802 4.80412 19.8002L3.84679 18.8442C2.27879 17.2855 2.27212 14.7375 3.83212 13.1682L4.80546 12.1935C5.18146 11.8162 5.38946 11.3109 5.39079 10.7749V9.40686C5.39079 7.1922 7.19212 5.39086 9.40546 5.39086H10.7761C11.3108 5.39086 11.8148 5.18286 12.1948 4.80286L13.1535 3.84686C14.7121 2.27886 17.2588 2.27086 18.8295 3.8322L19.8028 4.80553C20.1815 5.18286 20.6855 5.39086 21.2201 5.39086H22.5908C24.8041 5.39086 26.6055 7.1922 26.6055 9.40686V10.7762C26.6068 11.3109 26.8148 11.8162 27.1921 12.1962L28.1495 13.1535C28.9081 13.9082 29.3281 14.9135 29.3321 15.9869C29.3348 17.0535 28.9241 18.0575 28.1761 18.8162C28.1628 18.8295 28.1508 18.8442 28.1375 18.8562L27.1908 19.8029C26.8148 20.1802 26.6068 20.6855 26.6055 21.2215V22.5909C26.6055 24.8042 24.8041 26.6055 22.5908 26.6055H21.2201C20.6855 26.6069 20.1801 26.8149 19.8015 27.1922L18.8428 28.1495C18.0615 28.9362 17.0295 29.3309 15.9988 29.3309Z" fill="#393939"/>
<path fill-rule="evenodd" clip-rule="evenodd" d="M13.3904 13.4011C13.1704 13.6211 12.8851 13.7398 12.5691 13.7398C12.2731 13.7398 11.9824 13.6184 11.7491 13.3998C11.5277 13.1798 11.4024 12.8784 11.4024 12.5731C11.4024 12.2824 11.5251 11.9838 11.7411 11.7531C11.8597 11.6331 12.0011 11.5424 12.1424 11.4944C12.5451 11.3104 13.0797 11.4184 13.3971 11.7518C13.5104 11.8651 13.5971 11.9891 13.6544 12.1184C13.7171 12.2571 13.7491 12.4144 13.7491 12.5731C13.7491 12.8904 13.6224 13.1851 13.3904 13.4011ZM20.254 11.7463C19.7993 11.293 19.0593 11.293 18.6047 11.7463L11.7513 18.5996C11.2967 19.0543 11.2967 19.7943 11.7513 20.2503C11.9727 20.4703 12.2647 20.5916 12.5767 20.5916C12.8887 20.5916 13.1807 20.4703 13.4007 20.2503L20.254 13.397C20.7087 12.941 20.7087 12.2023 20.254 11.7463ZM19.8744 18.3518C19.4424 18.1704 18.9304 18.2691 18.5891 18.6104C18.5184 18.6931 18.4184 18.8211 18.3504 18.9718C18.2784 19.1344 18.2691 19.3091 18.2691 19.4264C18.2691 19.5438 18.2784 19.7171 18.3504 19.8798C18.4171 20.0291 18.4971 20.1504 18.6024 20.2558C18.8437 20.4798 19.1237 20.5931 19.4357 20.5931C19.7317 20.5931 20.0224 20.4731 20.2611 20.2504C20.4731 20.0384 20.5891 19.7451 20.5891 19.4264C20.5891 19.1064 20.4731 18.8144 20.2597 18.6011C20.1424 18.4851 20.0011 18.3944 19.8744 18.3518Z" fill="#FC67FA"/>
</svg>
