<svg width="263" height="96" viewBox="0 0 263 96" fill="none" xmlns="http://www.w3.org/2000/svg">
<path d="M103.299 61.7458L97.0701 50.7434H94.4004V61.7458H88.7374V33.5117H99.3353C101.52 33.5117 103.38 33.9028 104.917 34.6848C106.455 35.4399 107.601 36.4781 108.356 37.7994C109.138 39.0938 109.529 40.55 109.529 42.168C109.529 44.0287 108.989 45.7142 107.911 47.2243C106.832 48.7075 105.228 49.7322 103.097 50.2985L109.852 61.7458H103.299ZM94.4004 46.4962H99.1331C100.67 46.4962 101.816 46.1321 102.571 45.404C103.326 44.649 103.704 43.6108 103.704 42.2894C103.704 40.995 103.326 39.9972 102.571 39.2961C101.816 38.568 100.67 38.2039 99.1331 38.2039H94.4004V46.4962ZM135.482 50.0558C135.482 50.8648 135.429 51.5929 135.321 52.2401H118.938C119.073 53.8581 119.64 55.1255 120.637 56.0424C121.635 56.9593 122.862 57.4177 124.318 57.4177C126.422 57.4177 127.918 56.5143 128.808 54.7075H134.916C134.269 56.8649 133.028 58.6447 131.195 60.0469C129.361 61.4222 127.109 62.1099 124.44 62.1099C122.282 62.1099 120.341 61.638 118.615 60.6941C116.916 59.7233 115.581 58.3615 114.61 56.6087C113.666 54.8559 113.194 52.8334 113.194 50.5412C113.194 48.2221 113.666 46.1861 114.61 44.4332C115.554 42.6804 116.875 41.3321 118.574 40.3882C120.273 39.4444 122.228 38.9725 124.44 38.9725C126.57 38.9725 128.471 39.4309 130.143 40.3478C131.842 41.2647 133.15 42.5725 134.067 44.2714C135.011 45.9434 135.482 47.8715 135.482 50.0558ZM129.617 48.4378C129.59 46.9816 129.064 45.822 128.04 44.9591C127.015 44.0692 125.761 43.6242 124.278 43.6242C122.876 43.6242 121.689 44.0557 120.718 44.9186C119.774 45.7546 119.195 46.9277 118.979 48.4378H129.617ZM151.994 61.7458L147.382 54.7884L143.297 61.7458H137.229L144.551 50.5007L137.148 39.3365H143.54L148.11 46.2535L152.236 39.3365H158.304L150.942 50.5007L158.385 61.7458H151.994Z" fill="white"/>
<path d="M177.479 47.2647C179.07 47.5614 180.378 48.3569 181.402 49.6513C182.427 50.9457 182.939 52.4289 182.939 54.1008C182.939 55.6109 182.562 56.9458 181.807 58.1053C181.079 59.2379 180.014 60.1278 178.611 60.775C177.209 61.4222 175.551 61.7458 173.636 61.7458H161.46V33.5117H173.11C175.025 33.5117 176.67 33.8219 178.045 34.4421C179.447 35.0623 180.499 35.9253 181.2 37.0309C181.928 38.1365 182.292 39.3905 182.292 40.7927C182.292 42.4377 181.847 43.813 180.957 44.9186C180.094 46.0243 178.935 46.8063 177.479 47.2647ZM167.123 45.1613H172.301C173.649 45.1613 174.688 44.8647 175.416 44.2714C176.144 43.6512 176.508 42.7748 176.508 41.6422C176.508 40.5096 176.144 39.6332 175.416 39.0129C174.688 38.3927 173.649 38.0826 172.301 38.0826H167.123V45.1613ZM172.827 57.1345C174.202 57.1345 175.267 56.8109 176.022 56.1637C176.805 55.5165 177.196 54.5997 177.196 53.4131C177.196 52.1996 176.791 51.2558 175.982 50.5816C175.173 49.8805 174.081 49.5299 172.706 49.5299H167.123V57.1345H172.827ZM185.997 50.4603C185.997 48.1951 186.442 46.1861 187.331 44.4332C188.248 42.6804 189.475 41.3321 191.012 40.3882C192.576 39.4444 194.316 38.9725 196.23 38.9725C197.902 38.9725 199.359 39.3096 200.599 39.9837C201.866 40.6579 202.878 41.5074 203.633 42.5321V39.3365H209.336V61.7458H203.633V58.4694C202.905 59.5211 201.893 60.3975 200.599 61.0986C199.332 61.7728 197.862 62.1099 196.19 62.1099C194.302 62.1099 192.576 61.6245 191.012 60.6537C189.475 59.6829 188.248 58.3211 187.331 56.5682C186.442 54.7884 185.997 52.7525 185.997 50.4603ZM203.633 50.5412C203.633 49.1659 203.363 47.9928 202.824 47.022C202.284 46.0243 201.556 45.2692 200.639 44.7568C199.723 44.2175 198.738 43.9478 197.687 43.9478C196.635 43.9478 195.664 44.204 194.774 44.7164C193.884 45.2288 193.156 45.9838 192.59 46.9816C192.051 47.9524 191.781 49.112 191.781 50.4603C191.781 51.8086 192.051 52.9952 192.59 54.0199C193.156 55.0177 193.884 55.7862 194.774 56.3255C195.691 56.8649 196.662 57.1345 197.687 57.1345C198.738 57.1345 199.723 56.8784 200.639 56.366C201.556 55.8267 202.284 55.0716 202.824 54.1008C203.363 53.103 203.633 51.9165 203.633 50.5412ZM227.285 39.0129C229.955 39.0129 232.112 39.8624 233.757 41.5613C235.402 43.2332 236.225 45.5793 236.225 48.5996V61.7458H230.562V49.3681C230.562 47.5883 230.117 46.2265 229.227 45.2827C228.337 44.3119 227.123 43.8265 225.586 43.8265C224.022 43.8265 222.782 44.3119 221.865 45.2827C220.975 46.2265 220.53 47.5883 220.53 49.3681V61.7458H214.867V39.3365H220.53V42.1276C221.285 41.1568 222.243 40.4017 223.402 39.8624C224.589 39.2961 225.883 39.0129 227.285 39.0129ZM254.878 61.7458L247.273 52.1996V61.7458H241.61V31.8128H247.273V48.8423L254.797 39.3365H262.159L252.289 50.5816L262.239 61.7458H254.878Z" fill="#F942F6"/>
<path d="M73.1901 69.5533C77.5358 64.4883 80.282 58.2485 81.0813 51.6227C81.8807 44.997 80.6973 38.2831 77.6809 32.3299C74.6645 26.3767 69.9505 21.4517 64.1351 18.1777C58.3196 14.9036 51.6639 13.4276 45.0096 13.9362C38.3552 14.4448 32.0011 16.9152 26.7508 21.0351C21.5005 25.1549 17.5898 30.7392 15.5132 37.0816C13.4366 43.4241 13.2873 50.2399 15.0844 56.6671C16.8814 63.0944 20.544 68.8444 25.609 73.1901L36.5951 60.3856C34.0626 58.2128 32.2313 55.3378 31.3328 52.1241C30.4342 48.9105 30.5089 45.5026 31.5472 42.3314C32.5855 39.1601 34.5408 36.368 37.166 34.3081C39.7911 32.2482 42.9682 31.013 46.2954 30.7587C49.6225 30.5044 52.9504 31.2424 55.8581 32.8794C58.7658 34.5164 61.1228 36.9789 62.631 39.9555C64.1392 42.9321 64.7309 46.2891 64.3312 49.6019C63.9316 52.9148 62.5585 56.0347 60.3856 58.5672L73.1901 69.5533Z" fill="white"/>
<path d="M73.1901 69.5533C76.0755 66.1903 78.2703 62.2919 79.6491 58.0806C81.028 53.8694 81.5638 49.4278 81.2261 45.0095C80.8884 40.5912 79.6837 36.2827 77.6809 32.3299C75.6781 28.3772 72.9163 24.8576 69.5533 21.9722L58.5672 34.7766C60.2487 36.2194 61.6296 37.9791 62.631 39.9555C63.6324 41.9319 64.2348 44.0862 64.4036 46.2953C64.5725 48.5045 64.3046 50.7253 63.6151 52.8309C62.9257 54.9365 61.8283 56.8857 60.3856 58.5672L73.1901 69.5533Z" fill="#F942F6"/>
<circle cx="47.5812" cy="47.5812" r="10.5447" transform="rotate(130.629 47.5812 47.5812)" fill="#F942F6"/>
<path d="M40.7148 55.584C41.7658 56.4857 42.984 57.1716 44.3001 57.6024C45.6161 58.0333 47.0041 58.2008 48.3848 58.0952C49.7655 57.9897 51.1119 57.6133 52.3472 56.9874C53.5824 56.3615 54.6823 55.4984 55.584 54.4475C56.4856 53.3966 57.1715 52.1783 57.6024 50.8623C58.0333 49.5463 58.2007 48.1583 58.0952 46.7776C57.9897 45.3969 57.6132 44.0504 56.9873 42.8152C56.3614 41.58 55.4984 40.4801 54.4475 39.5784L47.5812 47.5812L40.7148 55.584Z" fill="white"/>
</svg>
